<?xml version="1.0" encoding="utf-8"?>
<!-- Generator: Adobe Illustrator 27.5.0, SVG Export Plug-In . SVG Version: 6.00 Build 0)  -->
<svg version="1.1" id="Capa_1" xmlns="http://www.w3.org/2000/svg" xmlns:xlink="http://www.w3.org/1999/xlink" x="0px" y="0px"
	 viewBox="0 0 2372 1898" style="enable-background:new 0 0 2372 1898;" xml:space="preserve">
<g>
	<path style="fill:#95AFBD;" d="M2164.328,857.68c-35.793-142.644,109.957-192.984,147.664-325.633
		c-106.93,1.211-275.77,65.398-360.125,125.656c-95.063,67.918-136.059,123.23-164.934,177.758
		c-191.184-53.644-491.715-187.383-720.82-222.91l0.152-0.043c-0.586-0.063-1.172-0.148-1.754-0.215
		c-8.223-1.258-16.336-2.383-24.367-3.379c-61.574-10.527-121.809-35.625-169.922-76.09
		C828.801,497.98,738.09,423.09,705.473,429.707c-23.434,4.754-79.359,142.43-83.941,193.383
		c-104.859,17.262-206.633,49.981-303.918,112.328C243.32,783.031,26.445,931.445,27.316,1011.324
		c0.512,47.473,70.762,91.695,103.82,114.859c6.371,4.473,12.891,8.859,19.484,13.199c1.977,1.301,3.98,2.586,5.973,3.879
		c4.887,3.164,9.828,6.297,14.816,9.391c2.027,1.258,4.043,2.512,6.082,3.758c6.098,3.715,12.258,7.383,18.504,10.992
		c0.746,0.43,1.473,0.871,2.219,1.309c7.438,4.281,14.98,8.477,22.609,12.609c0.652,0.355,1.316,0.703,1.977,1.051
		c6.953,3.754,13.992,7.438,21.09,11.063c1.09,0.551,2.176,1.102,3.258,1.652c160,81.047,353.301,129.914,509.215,133.117
		c47.578,0.98,91.699-0.996,133.691-5.574c14.828,56.402,48.129,128.387,82.578,141.633
		c59.988,23.07,201.824-63.973,182.344-120.938c-5.348-15.645-33.316-40.254-65.797-64.906
		c79.512-26.496,158.742-62.547,248.82-105.824c70.211,75.023,178.945,89.879,274.477,56.641c-0.898-0.934-1.789-1.859-2.684-2.789
		c-28.598-13.77-54.473-33.68-76.918-57.953c-17.246-18.644-36.848-41.078-52.012-65.605
		c101.133-50.254,207.25-105.461,299.707-160.605c8.27,33.707,28.777,62.172,66.844,87.805
		c143.547,96.672,322.355,160.539,496.988,152.559C2344.402,1047.57,2198.172,992.523,2164.328,857.68z"/>
	<g>
		<path style="fill:#6F98AD;" d="M152.461,889.922c74.668-70.07,160.305-131.656,253.238-176.984
			c-4.762-6.477-9.566-12.813-14.398-18.871c-24.828,12.094-49.406,25.789-73.688,41.352
			C243.32,783.031,26.445,931.445,27.316,1011.324c0.512,47.473,70.762,91.695,103.82,114.859
			c56.234,39.422,121.066,74.035,189.652,103c25.281-23.559,52.664-51.527,77.922-82.18c3.348,1.742,7.566,1.727,11.086-1.652
			c110.723-106.332,118.758-277.531,29.816-400.113c-3.574-4.926-9.402-5.148-13.645-2.926c-2.715-4.219-5.469-8.371-8.254-12.461
			c-92.027,44.223-176.668,103.969-251.308,174.016C157.141,912.559,143.168,898.641,152.461,889.922z"/>
		<path style="fill:#F9B233;" d="M2164.328,857.68c-35.793-142.644,109.957-192.984,147.664-325.633
			c-106.93,1.211-275.77,65.398-360.125,125.656c-95.063,67.918-136.059,123.23-164.934,177.758
			c-1.398,2.637-2.777,5.277-4.125,7.914c-7.461,37.781-9.27,70.238-2.238,98.906c8.27,33.707,28.777,62.172,66.844,87.805
			c143.547,96.672,322.355,160.539,496.988,152.559C2344.402,1047.57,2198.172,992.523,2164.328,857.68z"/>
		<path style="fill:#F9B233;" d="M1066.266,612.508c-0.586-0.063-1.172-0.148-1.754-0.215c0.527,0.082,1.07,0.172,1.602,0.258
			L1066.266,612.508z"/>
		<path style="fill:#F9B233;" d="M1040.145,608.914c-61.574-10.527-121.809-35.625-169.922-76.09
			C828.801,497.98,738.09,423.09,705.473,429.707c-23.434,4.754-79.359,142.43-83.941,193.383
			c110.816-18.242,225.082-19.207,341.176-19.402C987.133,603.648,1013.102,605.555,1040.145,608.914z"/>
		<path style="fill:#EE8734;" d="M1338,1172.594c70.211,75.023,178.945,89.879,274.477,56.641c-0.898-0.934-1.789-1.859-2.684-2.789
			c-28.598-13.77-54.473-33.68-76.918-57.953c-17.246-18.644-36.848-41.078-52.012-65.605
			c-44.902,22.313-88.832,43.664-130.109,63.574C1346.461,1168.531,1342.238,1170.563,1338,1172.594z"/>
		<path style="fill:#EE8734;" d="M972.633,1464.262c59.988,23.07,201.824-63.973,182.344-120.938
			c-5.348-15.645-33.316-40.254-65.797-64.906c-64.184,21.383-128.617,36.527-199.125,44.211
			C904.883,1379.031,938.184,1451.016,972.633,1464.262z"/>
		<path style="fill:#511A01;" d="M325.141,947.734c0,19.691-15.961,35.652-35.656,35.652c-19.688,0-35.649-15.961-35.649-35.652
			c0-19.688,15.961-35.652,35.649-35.652C309.18,912.082,325.141,928.047,325.141,947.734z"/>
		<path style="fill:#F9B233;" d="M579.621,1059.148c34.438,7.977,105.352,33.563,143.277,53.484
			c51.32,26.961,50.207,47.078,14.461,92.027c-41.867,52.648-101.836,115.676-150.527,49.859
			c-32.387-43.777-53.922-97.633-70.84-149.109C515.992,1105.41,537.859,1049.461,579.621,1059.148z"/>
		<g>
			<path style="fill:#753B2A;" d="M1072.004,632.543c-84.594-9.238-168.168-12.469-253.16-8.078
				c-86.004,4.441-170.016,8.832-253.93,29.785c-54.906,13.711-108.148,33.781-159.215,58.688
				c-92.934,45.328-178.57,106.914-253.238,176.984c-9.293,8.719,4.68,22.637,13.945,13.945
				c74.641-70.047,159.281-129.793,251.308-174.016c52-24.988,106.336-45.07,162.625-59.125
				c81.887-20.445,165.348-22.766,249.176-27.094c81.293-4.199,161.617-0.203,242.488,8.633
				C1084.637,653.644,1084.508,633.91,1072.004,632.543z"/>
			<path style="fill:#753B2A;" d="M1876.344,811.723c101.867-86.578,219.367-144.734,342.668-194.199
				c11.652-4.672,6.57-23.754-5.238-19.016c-126.559,50.766-246.828,110.414-351.375,199.269
				C1852.699,806.023,1866.715,819.906,1876.344,811.723z"/>
			<path style="fill:#753B2A;" d="M2130.449,755.66c-83.773,37.055-176.141,54.328-263.699,80.16
				c-12.168,3.59-6.98,22.621,5.242,19.016c89.32-26.352,182.945-44.344,268.414-82.148
				C2152.012,767.555,2141.969,750.566,2130.449,755.66z"/>
			<path style="fill:#753B2A;" d="M2135.426,877.324c-88.613-3.512-177.398-1.168-266.055-3.152
				c-12.723-0.281-12.695,19.438,0,19.723c88.656,1.984,177.441-0.359,266.055,3.149
				C2148.152,897.551,2148.098,877.828,2135.426,877.324z"/>
			<path style="fill:#753B2A;" d="M2274.289,1105.734c-77.309-16.391-152.852-40.824-227.242-67.254
				c-65.883-23.402-132.691-48.055-194.551-80.922c-11.227-5.969-21.191,11.055-9.957,17.02
				c58.59,31.137,121.668,54.629,183.855,77.367c79.199,28.957,160.082,55.301,242.656,72.809
				C2281.453,1127.383,2286.73,1108.371,2274.289,1105.734z"/>
			<path style="fill:#753B2A;" d="M1860.328,934.52c121.801,33.453,242.262,73.008,365.027,102.828
				c12.352,3,17.594-16.016,5.238-19.016c-122.762-29.812-243.223-69.375-365.023-102.828
				C1853.285,912.129,1848.078,931.156,1860.328,934.52z"/>
			<path style="fill:#753B2A;" d="M682.855,735.59c10.977-6.398,1.059-23.445-9.957-17.027
				c-23.074,13.453-15.309,62.59,12.691,64.641c12.692,0.934,12.606-18.793,0-19.719c-3.492-0.254-5.453-10.734-5.914-13.004
				C678.797,746.184,678.477,738.141,682.855,735.59z"/>
			<path style="fill:#753B2A;" d="M685.59,898.809c12.692,0.934,12.606-18.793,0-19.719c-3.492-0.254-5.453-10.738-5.914-13.008
				c-0.879-4.297-1.199-12.344,3.18-14.891c10.977-6.398,1.059-23.445-9.957-17.027C649.82,847.613,657.59,896.758,685.59,898.809z"
				/>
			<path style="fill:#753B2A;" d="M682.855,966.789c10.977-6.398,1.059-23.445-9.957-17.027
				c-23.074,13.453-15.309,62.594,12.691,64.648c12.692,0.93,12.606-18.801,0-19.719c-3.492-0.258-5.453-10.738-5.914-13.008
				C678.797,977.383,678.477,969.344,682.855,966.789z"/>
			<path style="fill:#753B2A;" d="M832.113,764.898c-3.492-0.258-5.453-10.742-5.91-13.008c-0.883-4.301-1.199-12.344,3.18-14.895
				c10.977-6.398,1.059-23.445-9.957-17.027c-23.074,13.453-15.316,62.594,12.688,64.648
				C844.809,785.547,844.719,765.82,832.113,764.898z"/>
			<path style="fill:#753B2A;" d="M832.113,880.492c-3.492-0.258-5.453-10.734-5.91-13.004c-0.883-4.301-1.199-12.344,3.18-14.895
				c10.977-6.402,1.051-23.449-9.957-17.027c-23.066,13.457-15.316,62.594,12.688,64.648
				C844.809,901.145,844.719,881.418,832.113,880.492z"/>
			<path style="fill:#753B2A;" d="M832.113,996.09c-3.492-0.254-5.453-10.734-5.91-13.004c-0.883-4.301-1.199-12.34,3.18-14.895
				c10.977-6.394,1.059-23.445-9.957-17.027c-23.074,13.453-15.316,62.598,12.688,64.648
				C844.809,1016.742,844.719,997.016,832.113,996.09z"/>
			<path style="fill:#753B2A;" d="M832.113,1111.691c-3.492-0.258-5.453-10.738-5.91-13.008c-0.883-4.293-1.199-12.34,3.18-14.895
				c10.977-6.395,1.059-23.445-9.957-17.027c-23.074,13.453-15.316,62.594,12.688,64.649
				C844.809,1132.34,844.719,1112.609,832.113,1111.691z"/>
			<path style="fill:#753B2A;" d="M978.641,766.297c-3.492-0.258-5.453-10.738-5.91-13.004c-0.883-4.301-1.199-12.344,3.184-14.895
				c10.973-6.398,1.055-23.445-9.957-17.027c-23.074,13.453-15.32,62.594,12.684,64.648
				C991.34,786.949,991.246,767.223,978.641,766.297z"/>
			<path style="fill:#753B2A;" d="M978.641,881.894c-3.492-0.254-5.453-10.734-5.91-13.004c-0.883-4.297-1.199-12.34,3.184-14.891
				c10.973-6.402,1.055-23.449-9.957-17.031c-23.074,13.457-15.32,62.594,12.684,64.645
				C991.34,902.547,991.246,882.82,978.641,881.894z"/>
			<path style="fill:#753B2A;" d="M978.641,997.496c-3.492-0.258-5.453-10.738-5.91-13.008c-0.883-4.297-1.199-12.344,3.184-14.895
				c10.973-6.398,1.051-23.449-9.957-17.027c-23.07,13.457-15.32,62.594,12.684,64.648
				C991.34,1018.145,991.246,998.422,978.641,997.496z"/>
			<path style="fill:#753B2A;" d="M975.914,1085.199c10.973-6.398,1.055-23.445-9.957-17.027
				c-23.082,13.449-15.313,62.59,12.684,64.641c12.699,0.934,12.606-18.793,0-19.719c-3.492-0.254-5.453-10.734-5.91-13.008
				C971.848,1095.797,971.531,1087.75,975.914,1085.199z"/>
			<path style="fill:#753B2A;" d="M1125.172,787.422c12.695,0.93,12.602-18.797,0-19.719c-3.492-0.258-5.453-10.738-5.918-13.008
				c-0.875-4.297-1.191-12.34,3.18-14.895c10.977-6.398,1.055-23.449-9.957-17.027
				C1089.41,736.231,1097.168,785.371,1125.172,787.422z"/>
			<path style="fill:#753B2A;" d="M1125.172,903.02c12.695,0.934,12.602-18.793,0-19.719c-3.492-0.254-5.453-10.734-5.918-13.004
				c-0.875-4.297-1.191-12.34,3.18-14.891c10.977-6.398,1.055-23.445-9.957-17.027
				C1089.398,851.832,1097.172,900.969,1125.172,903.02z"/>
			<path style="fill:#753B2A;" d="M1125.172,1018.621c12.695,0.926,12.602-18.801,0-19.727c-3.492-0.254-5.453-10.73-5.918-13
				c-0.875-4.293-1.191-12.34,3.18-14.887c10.977-6.402,1.055-23.449-9.957-17.031
				C1089.398,967.426,1097.172,1016.566,1125.172,1018.621z"/>
			<path style="fill:#753B2A;" d="M1122.434,1086.602c10.977-6.395,1.055-23.445-9.957-17.027
				c-23.074,13.453-15.305,62.59,12.695,64.645c12.695,0.926,12.602-18.797,0-19.723c-3.492-0.258-5.453-10.73-5.918-13.004
				C1118.379,1097.199,1118.063,1089.148,1122.434,1086.602z"/>
			<path style="fill:#753B2A;" d="M1271.691,845.227c12.695,0.93,12.605-18.801,0-19.727c-3.496-0.254-5.449-10.731-5.914-13
				c-0.875-4.301-1.188-12.344,3.188-14.894c10.977-6.402,1.051-23.449-9.957-17.027
				C1235.934,794.031,1243.688,843.172,1271.691,845.227z"/>
			<path style="fill:#753B2A;" d="M1271.691,960.82c12.695,0.93,12.605-18.797,0-19.719c-3.496-0.258-5.449-10.734-5.914-13.004
				c-0.875-4.301-1.188-12.344,3.188-14.895c10.977-6.398,1.051-23.445-9.957-17.027
				C1235.934,909.629,1243.688,958.766,1271.691,960.82z"/>
			<path style="fill:#753B2A;" d="M1271.691,1076.418c12.695,0.934,12.605-18.797,0-19.719c-3.496-0.254-5.449-10.734-5.914-13
				c-0.875-4.305-1.188-12.344,3.188-14.898c10.977-6.402,1.051-23.449-9.957-17.027
				C1235.934,1025.227,1243.684,1074.371,1271.691,1076.418z"/>
			<path style="fill:#753B2A;" d="M1435.129,903.02c12.691,0.934,12.605-18.793,0-19.719c-3.492-0.254-5.445-10.734-5.914-13.004
				c-0.879-4.297-1.195-12.34,3.18-14.891c10.977-6.398,1.059-23.445-9.957-17.027
				C1399.363,851.832,1407.133,900.969,1435.129,903.02z"/>
			<path style="fill:#753B2A;" d="M1432.395,971.008c10.977-6.402,1.059-23.449-9.957-17.031
				c-23.074,13.449-15.301,62.59,12.691,64.644c12.691,0.926,12.605-18.801,0-19.727c-3.492-0.254-5.445-10.734-5.914-13
				C1428.336,981.602,1428.02,973.555,1432.395,971.008z"/>
			<path style="fill:#753B2A;" d="M557.219,1117.332c-7.27-10.305-24.379-0.461-17.031,9.957
				c27.375,38.816,56.223,78.793,88.305,113.82c8.605,9.395,22.519-4.594,13.945-13.945
				C611.477,1193.363,583.609,1154.766,557.219,1117.332z"/>
			<path style="fill:#753B2A;" d="M640.766,1153.703c-20.906-18.973-43.523-36.184-63.879-55.715
				c-9.172-8.801-23.141,5.129-13.945,13.945c19.398,18.613,41.215,34.41,60.785,52.867c15.074,14.203,30.961,27.648,46.828,40.961
				c9.676,8.109,23.703-5.762,13.945-13.945C669.691,1179.387,655.086,1166.699,640.766,1153.703z"/>
			<path style="fill:#753B2A;" d="M722.707,1149.145c-42.816-22.438-84.148-48.5-125.648-73.266
				c-10.949-6.535-20.863,10.52-9.957,17.027c41.504,24.766,82.832,50.828,125.648,73.266
				C724.004,1172.066,733.973,1155.051,722.707,1149.145z"/>
			<path style="fill:#753B2A;" d="M1636.309,938.477c-101.441,80.324-215.719,141.402-333.43,194.238
				c-123.617,55.496-251.176,102.891-380.438,143.57c-12.223,3.848-6.996,23.109,5.309,19.234
				c131.004-41.23,259.762-89.703,385.195-145.578c119.5-53.23,234.684-115.977,337.473-197.359
				C1660.5,944.598,1646.281,930.582,1636.309,938.477z"/>
			<path style="fill:#753B2A;" d="M984.965,1380.527c-9.41-15.598-19.172-31.035-28.559-46.676
				c-6.605-11.016-23.859-0.992-17.223,10.066c9.391,15.648,18.773,31.277,28.559,46.676c8.18,12.867,17.855,24.977,25.426,38.16
				c6.406,11.148,23.641,1.105,17.226-10.066C1002.723,1405.336,992.934,1393.734,984.965,1380.527z"/>
			<path style="fill:#753B2A;" d="M1003.691,1318.98c-8.266-9.871-22.305,4.316-14.106,14.102
				c16.418,19.602,29.523,41.727,44.715,62.254c7.566,10.211,24.887,0.281,17.223-10.066
				C1035.309,1363.359,1021.223,1339.902,1003.691,1318.98z"/>
			<path style="fill:#753B2A;" d="M1059.23,1300.434c-7.59-10.188-24.918-0.262-17.223,10.066
				c13.805,18.508,36.582,33.609,42.695,56.742c3.285,12.426,22.531,7.152,19.238-5.301
				C1097.066,1335.938,1074.559,1320.992,1059.23,1300.434z"/>
			<path style="fill:#753B2A;" d="M1539.121,1200.738c-13.418-4.809-23.699-21.645-34.195-31.254
				c-13.512-12.371-23.402-27.52-35.949-40.73c-8.879-9.34-22.957,4.785-14.105,14.105c13.766,14.488,24.875,30.59,39.707,44.176
				c13.387,12.25,21.637,26.625,39.238,32.937C1545.957,1224.324,1551.133,1205.047,1539.121,1200.738z"/>
			<path style="fill:#753B2A;" d="M1479.914,1197.809c-23.152-1.102-37.48-29.332-56.652-39.77
				c-11.305-6.148-21.371,11.074-10.066,17.223c24.109,13.125,36.414,41.051,66.719,42.496
				C1492.781,1218.371,1492.715,1198.418,1479.914,1197.809z"/>
			<path style="fill:#753B2A;" d="M1401.477,1187.703c-0.289-0.211-0.594-0.449-0.773-0.637c-1.316-1.367-2.391-2.953-3.703-4.328
				c-3.754-3.934-10.328-3.777-14.109,0c-3.906,3.906-3.746,10.176,0,14.102c1.633,1.711,2.965,3.66,4.676,5.293
				c3.527,3.391,7.816,5.102,12.664,5.344c5.43,0.273,9.973-4.742,9.973-9.973
				C1410.203,1192.301,1406.336,1188.488,1401.477,1187.703z"/>
			<path style="fill:#753B2A;" d="M701.984,585.828c0.48-11.637,4.848-22.266,6.344-33.742c2.023-15.594,2.602-31.051,7.102-46.219
				c5.133-17.285-21.785-24.613-26.887-7.414c-4.074,13.707-5.504,27.805-6.887,41.988c-1.504,15.438-6.922,29.805-7.559,45.387
				C673.359,603.82,701.25,603.746,701.984,585.828z"/>
			<path style="fill:#753B2A;" d="M768.398,583.934c5.281-20.621,3.484-41.25,3.289-62.273c-0.164-17.977-28.051-17.992-27.891,0
				c0.172,18.391,2.328,36.832-2.285,54.859C737.043,593.953,763.941,601.348,768.398,583.934z"/>
			<path style="fill:#753B2A;" d="M824.676,571.859c0-9.293,0-18.594,0-27.887c0-17.988-27.887-17.988-27.887,0
				c0,9.293,0,18.594,0,27.887C796.789,589.848,824.676,589.848,824.676,571.859z"/>
			<path style="fill:#753B2A;" d="M863.723,585.805c7.605,0,13.945-6.344,13.945-13.945c0-4.648,0-9.293,0-13.945
				c0-7.602-6.34-13.941-13.945-13.941c-7.605,0-13.945,6.34-13.945,13.941c0,4.652,0,9.297,0,13.945
				C849.777,579.461,856.117,585.805,863.723,585.805z"/>
			<path style="fill:#753B2A;" d="M422.586,755.191c83.891,115.625,78.133,275.504-26.734,376.219
				c-9.191,8.824,4.777,22.746,13.945,13.941c110.723-106.332,118.758-277.531,29.816-400.113
				C432.223,735.051,415.102,744.875,422.586,755.191z"/>
		</g>
	</g>
</g>
</svg>
